<svg width="20" height="19" viewBox="0 0 20 19" fill="none" xmlns="http://www.w3.org/2000/svg">
<path d="M5.87695 9.41854C6.68088 11.0123 8.02332 12.2977 9.68555 13.0654C9.80816 13.1211 9.94378 13.1453 10.0791 13.1354C10.2143 13.1255 10.3446 13.082 10.457 13.0092L12.8984 11.4435C13.0063 11.3733 13.1309 11.3304 13.2607 11.319C13.3905 11.3075 13.5212 11.3278 13.6406 11.3779L18.2109 13.2623C18.3671 13.3247 18.4976 13.4347 18.5823 13.5753C18.667 13.7159 18.7012 13.8793 18.6797 14.0404C18.5348 15.1258 17.983 16.1233 17.1274 16.8463C16.2718 17.5693 15.1711 17.9683 14.0312 17.9685C10.5088 17.9685 7.13071 16.6252 4.63999 14.2341C2.14927 11.8431 0.75 8.60005 0.75 5.21854C0.750257 4.12428 1.16583 3.06761 1.91897 2.24625C2.67211 1.42488 3.71119 0.895098 4.8418 0.756037C5.00961 0.735343 5.17985 0.768181 5.32631 0.849493C5.47277 0.930806 5.58733 1.05608 5.65234 1.20604L7.61523 5.60291C7.66628 5.71574 7.68763 5.83888 7.67741 5.9615C7.6672 6.08412 7.62572 6.20244 7.55664 6.30604L5.92578 8.68729C5.85317 8.79499 5.81056 8.91877 5.80201 9.0468C5.79346 9.17482 5.81927 9.30282 5.87695 9.41854Z" stroke="black" stroke-width="1.5" stroke-linecap="round" stroke-linejoin="round"/>
</svg>
